<svg width="1440" height="1548" viewBox="0 0 1440 1548" fill="none" xmlns="http://www.w3.org/2000/svg">
<g clip-path="url(#clip0_369_34)">
<rect width="1440" height="1548" fill="white"/>
<path d="M2224 1460C2224 1939.38 1835.38 2328 1356 2328C876.617 2328 488 1939.38 488 1460C488 980.617 876.617 592 1356 592C1835.38 592 2224 980.617 2224 1460Z" fill="url(#paint0_radial_369_34)"/>
<path d="M1064 238C1064 679.828 705.828 1038 264 1038C-177.828 1038 -536 679.828 -536 238C-536 -203.828 -177.828 -562 264 -562C705.828 -562 1064 -203.828 1064 238Z" fill="url(#paint1_radial_369_34)"/>
</g>
<defs>
<radialGradient id="paint0_radial_369_34" cx="0" cy="0" r="1" gradientUnits="userSpaceOnUse" gradientTransform="translate(1356 1460) rotate(90) scale(868)">
<stop stop-color="#B1C0FF"/>
<stop offset="1" stop-color="white" stop-opacity="0"/>
</radialGradient>
<radialGradient id="paint1_radial_369_34" cx="0" cy="0" r="1" gradientUnits="userSpaceOnUse" gradientTransform="translate(264 238) rotate(90) scale(800)">
<stop stop-color="#B1C0FF"/>
<stop offset="1" stop-color="white" stop-opacity="0"/>
</radialGradient>
<clipPath id="clip0_369_34">
<rect width="1440" height="1548" fill="white"/>
</clipPath>
</defs>
</svg>
